HIERARCHY
ROOT Hips
{
 OFFSET 0.000000 0.000000 0.000000
 CHANNELS 6 Xposition Yposition Zposition Yrotation Xrotation Zrotation
 JOINT Chest
 {
  OFFSET 0.000000 9.876139 0.000104
  CHANNELS 3 Yrotation Xrotation Zrotation
  JOINT Chest2
  {
   OFFSET 0.000000 10.876137 -0.000189
   CHANNELS 3 Yrotation Xrotation Zrotation
   JOINT Chest3
   {
    OFFSET 0.000000 9.827065 0.000000
    CHANNELS 3 Yrotation Xrotation Zrotation
    JOINT Chest4
    {
     OFFSET 0.000000 9.827065 0.000000
     CHANNELS 3 Yrotation Xrotation Zrotation
     JOINT Neck
     {
      OFFSET 0.000000 13.837564 0.000000
      CHANNELS 3 Yrotation Xrotation Zrotation
      JOINT Head
      {
       OFFSET 0.000000 9.147059 -0.000448
       CHANNELS 3 Yrotation Xrotation Zrotation
       End Site
       {
        OFFSET 0.000000 17.513050 -0.000234
       }
      }
     }
     JOINT RightCollar
     {
      OFFSET -3.007721 7.720841 0.000000
      CHANNELS 3 Yrotation Xrotation Zrotation
      JOINT RightShoulder
      {
       OFFSET -14.032560 0.000000 0.000000
       CHANNELS 3 Yrotation Xrotation Zrotation
       JOINT RightElbow
       {
        OFFSET -30.066962 0.000000 0.000000
        CHANNELS 3 Yrotation Xrotation Zrotation
        JOINT RightWrist
        {
         OFFSET -24.575761 0.000000 0.000000
         CHANNELS 3 Yrotation Xrotation Zrotation
         JOINT Prop1
         {
          OFFSET -3.508170 -1.002334 -2.004669
          CHANNELS 3 Yrotation Xrotation Zrotation
          End Site
          {
           OFFSET -75.170729 -33.091210 23.052389
          }
         }
         End Site
         {
          OFFSET -18.342718 0.000000 0.000000
         }
        }
       }
      }
     }
     JOINT LeftCollar
     {
      OFFSET 3.007721 7.720841 0.000000
      CHANNELS 3 Yrotation Xrotation Zrotation
      JOINT LeftShoulder
      {
       OFFSET 14.032560 0.000000 0.000000
       CHANNELS 3 Yrotation Xrotation Zrotation
       JOINT LeftElbow
       {
        OFFSET 30.066962 0.000000 0.000000
        CHANNELS 3 Yrotation Xrotation Zrotation
        JOINT LeftWrist
        {
         OFFSET 24.575761 0.000000 0.000000
         CHANNELS 3 Yrotation Xrotation Zrotation
         End Site
         {
          OFFSET 18.342718 0.000000 0.000000
         }
        }
       }
      }
     }
    }
   }
  }
 }
 JOINT RightHip
 {
  OFFSET -8.019680 -0.000509 -0.000052
  CHANNELS 3 Yrotation Xrotation Zrotation
  JOINT RightKnee
  {
   OFFSET 0.000000 -41.754945 0.000049
   CHANNELS 3 Yrotation Xrotation Zrotation
   JOINT RightAnkle
   {
    OFFSET 0.000000 -40.737371 0.000083
    CHANNELS 3 Yrotation Xrotation Zrotation
    JOINT RightToe
    {
     OFFSET 0.000000 -6.498123 14.692914
     CHANNELS 3 Yrotation Xrotation Zrotation
     End Site
     {
      OFFSET 0.000000 -1.503208 6.410318
     }
    }
   }
  }
 }
 JOINT LeftHip
 {
  OFFSET 8.019680 -0.000509 -0.000052
  CHANNELS 3 Yrotation Xrotation Zrotation
  JOINT LeftKnee
  {
   OFFSET 0.000000 -41.754945 0.000049
   CHANNELS 3 Yrotation Xrotation Zrotation
   JOINT LeftAnkle
   {
    OFFSET 0.000000 -40.737371 0.000083
    CHANNELS 3 Yrotation Xrotation Zrotation
    JOINT LeftToe
    {
     OFFSET 0.000000 -6.498123 14.692914
     CHANNELS 3 Yrotation Xrotation Zrotation
     End Site
     {
      OFFSET 0.000000 -1.503208 6.410318
     }
    }
   }
  }
 }
}
MOTION
Frames: 8
Frame Time: 0.016667
0.000000 88.808225 0.000000 0.000000 -5.826342 0.000000 0.000000 11.116423 0.000000 0.000000 -5.290081 0.000000 0.000000 0.000000 0.000000 0.000000 0.000000 0.000000 0.000000 12.665069 0.000000 0.000000 0.575450 0.000000 0.000000 0.000000 0.000000 0.000000 0.000000 0.000000 2.337306 0.000000 0.000000 -2.337306 0.000000 0.000000 0.000000 0.000000 0.000000 0.000000 0.000000 0.000000 0.000000 0.000000 0.000000 -2.337306 0.000000 0.000000 2.337306 0.000000 0.000000 0.000000 8.578828 0.000000 0.000000 1.905768 0.000000 0.000000 -4.658254 0.000000 0.000000 0.000000 0.000000 0.000000 8.578828 0.000000 0.000000 1.905768 0.000000 0.000000 -4.658254 0.000000 0.000000 0.000000 0.000000
-13.600499 77.785462 33.816052 -142.039443 -2.746830 3.536335 0.318121 10.431250 -1.492971 0.169859 4.629204 -0.674200 0.169859 4.629204 -0.674200 0.132442 3.471721 -0.506664 -15.483512 13.252589 7.500880 -31.928586 -7.804961 19.835536 2.128530 2.876423 8.450992 -34.257167 -61.514561 79.448550 30.055694 5.350642 -2.381849 -9.995060 3.354431 -22.345193 -19.735988 4.695553 -81.542723 2.125685 -3.919038 -7.313282 20.709775 -4.289741 -73.836344 -19.231988 2.330316 1.510662 -0.615586 -0.531918 -2.430547 -18.569143 -47.105349 -15.233619 -23.548816 44.196208 -22.010061 13.526737 1.185877 -0.704168 0.005112 0.033187 -0.010408 29.614296 -11.936059 27.850859 -12.361917 45.432167 -19.500217 -17.480920 -29.087212 3.959656 0.004609 0.015943 -0.019153
-13.594719 77.785826 33.817257 -142.036307 -2.712309 3.522068 0.308294 10.417876 -1.504761 0.165661 4.623886 -0.676868 0.165661 4.623886 -0.676868 0.129309 3.467737 -0.508631 -15.516678 13.246102 7.514609 -31.996217 -7.801659 19.873023 2.103291 2.850702 8.455492 -34.188939 -61.567352 79.371527 29.918888 5.362380 -2.401256 -10.019213 3.355478 -22.308150 -19.713485 4.694367 -81.574426 2.123714 -3.919455 -7.310561 20.770826 -4.281790 -73.849631 -19.204536 2.346708 1.501990 -0.618093 -0.534568 -2.420460 -18.591535 -47.139249 -15.203246 -23.559392 44.199157 -22.008809 13.577093 1.177760 -0.705953 0.005772 0.034735 -0.011663 29.608600 -11.976936 27.856035 -12.324166 45.443673 -19.486177 -17.438976 -29.082157 3.925077 -0.003067 0.011640 -0.016119
-13.587715 77.784643 33.808178 -142.016099 -2.703755 3.503802 0.292052 10.412437 -1.504752 0.157105 4.622173 -0.677412 0.157105 4.622173 -0.677412 0.122898 3.466461 -0.508973 -15.548753 13.234083 7.522323 -32.061465 -7.810621 19.900975 2.103753 2.879138 8.446668 -34.227188 -61.645192 79.338083 29.809329 5.287458 -2.351499 -10.031968 3.404015 -22.275985 -19.696685 4.722020 -81.592482 2.112198 -3.884236 -7.320595 20.792825 -4.293300 -73.866549 -19.163828 2.355288 1.514654 -0.612777 -0.535520 -2.437874 -18.592765 -47.140344 -15.210713 -23.605796 44.193822 -22.013578 13.671363 1.168651 -0.703001 0.006149 0.036891 -0.013400 29.586590 -11.997272 27.877779 -12.274484 45.459836 -19.461698 -17.446331 -29.082209 3.900853 0.002386 0.010254 -0.006907
-13.584481 77.782875 33.798365 -141.999447 -2.749253 3.485003 0.282012 10.430366 -1.504407 0.153460 4.632623 -0.678274 0.153460 4.632623 -0.678274 0.120184 3.474302 -0.509594 -15.579456 13.220327 7.528755 -32.124275 -7.823529 19.926726 2.098405 2.890374 8.442182 -34.288241 -61.646028 79.292721 29.780624 5.228844 -2.279539 -10.048508 3.439138 -22.242420 -19.697418 4.745517 -81.605416 2.093107 -3.867074 -7.327836 20.763075 -4.277163 -73.865253 -19.115279 2.342113 1.533663 -0.608101 -0.537453 -2.458706 -18.570911 -47.085815 -15.247446 -23.650479 44.189263 -22.013261 13.632153 1.181651 -0.702155 0.006907 0.028243 -0.014850 29.547644 -11.973209 27.933431 -12.242836 45.480408 -19.462793 -17.363424 -29.072122 3.840636 0.003154 -0.001118 0.001177
-13.586571 77.781501 33.794156 -141.993927 -2.794762 3.466454 0.272385 10.449713 -1.505409 0.151274 4.644026 -0.678618 0.151274 4.644026 -0.678618 0.118560 3.482857 -0.509836 -15.602395 13.201690 7.531489 -32.172991 -7.848835 19.944912 2.096187 2.873780 8.429564 -34.254750 -61.585268 79.204999 29.789555 5.131771 -2.263393 -10.064134 3.483438 -22.211578 -19.705141 4.788028 -81.614601 2.087481 -3.869469 -7.340337 20.720379 -4.245571 -73.862610 -19.064305 2.309858 1.551479 -0.601966 -0.536626 -2.480437 -18.579725 -47.037883 -15.254683 -23.642782 44.194785 -21.993460 13.472552 1.210831 -0.706972 0.007341 0.013278 -0.015678 29.525259 -11.950889 27.987834 -12.245200 45.490809 -19.481193 -17.435283 -29.075872 3.875889 -0.002826 -0.001840 0.001282
-13.582951 77.779191 33.786070 -142.000843 -2.791377 3.447856 0.272760 10.456386 -1.512387 0.152576 4.646071 -0.682284 0.152576 4.646071 -0.682284 0.119566 3.484389 -0.512595 -15.619965 13.180284 7.538587 -32.214088 -7.879271 19.970328 2.095214 2.848628 8.435453 -34.154467 -61.544202 79.084124 29.783310 5.002639 -2.306192 -10.096610 3.552281 -22.187359 -19.702862 4.829578 -81.637605 2.089834 -3.871984 -7.336375 20.692646 -4.238379 -73.871905 -19.000955 2.273536 1.547066 -0.602366 -0.539243 -2.484242 -18.593097 -47.030302 -15.238968 -23.618682 44.200760 -21.960062 13.510909 1.195829 -0.703901 0.006678 0.022216 -0.018873 29.545831 -11.964890 28.002399 -12.253861 45.488229 -19.482515 -17.346788 -29.073796 3.823577 0.001134 -0.003861 0.007717
-13.600847 77.775488 33.799864 -142.001140 -2.778614 3.443427 0.267708 10.458328 -1.530012 0.151299 4.645449 -0.685870 0.151299 4.645449 -0.685870 0.118636 3.483923 -0.515272 -15.630467 13.160044 7.542189 -32.240657 -7.911004 19.986793 2.099828 2.853028 8.439707 -34.171193 -61.557343 79.058653 29.745721 4.948027 -2.303474 -10.125625 3.569534 -22.179971 -19.690646 4.866948 -81.692148 2.097587 -3.867444 -7.334245 20.693408 -4.252288 -73.877911 -18.930614 2.250673 1.518561 -0.608288 -0.544454 -2.477837 -18.597321 -47.040110 -15.242011 -23.613532 44.203892 -21.942190 13.573480 1.179853 -0.699446 0.008348 0.031037 -0.019932 29.568254 -11.980912 27.998899 -12.255717 45.488095 -19.468155 -17.614757 -29.108346 3.959892 -0.016578 0.015700 -0.002108
